<svg xmlns="http://www.w3.org/2000/svg" xmlns:xlink="http://www.w3.org/1999/xlink" viewBox="0 0 323.67 72.62"><defs><style>.cls-1{isolation:isolate;}.cls-2{fill:#e6f5fd;}.cls-3{fill:#74cdf2;}.cls-27,.cls-3{mix-blend-mode:multiply;}.cls-17,.cls-22,.cls-23,.cls-36,.cls-4,.cls-48,.cls-8{fill:none;}.cls-4{stroke:#54b6e7;}.cls-17,.cls-22,.cls-36,.cls-4,.cls-48,.cls-8{stroke-linecap:round;stroke-linejoin:round;}.cls-22,.cls-4{stroke-width:0.75px;}.cls-5{fill:#97daf4;}.cls-6{fill:#75d0f1;}.cls-7{fill:#7dd2f4;}.cls-36,.cls-8{stroke:#fff;}.cls-8{stroke-width:5px;}.cls-9{fill:#17a3dc;}.cls-10{fill:#16a2da;}.cls-11{fill:#18a1db;}.cls-12{mask:url(#mask);}.cls-13{fill:#8ad6f4;}.cls-14{fill:#66cbf1;}.cls-15{fill:#d3eefc;}.cls-16{fill:#17a2da;}.cls-17{stroke:#4bb9e7;}.cls-17,.cls-48{stroke-width:0.5px;}.cls-18{fill:#75cef1;}.cls-19{fill:#75cdf2;}.cls-20{fill:#25aee4;}.cls-21{fill:#54b6e7;}.cls-22,.cls-23{stroke:#0097d1;}.cls-23{stroke-miterlimit:10;}.cls-24{fill:#53c2ef;}.cls-25,.cls-32{fill:#4bb9e7;}.cls-25,.cls-38{opacity:0;}.cls-26{fill:#44beee;}.cls-27{fill:#28aee4;opacity:0.44;}.cls-28{fill:#27ade4;}.cls-29{fill:#37b8ea;}.cls-30{fill:#149cd2;opacity:0.8;}.cls-31{fill:#66c9f0;}.cls-33{fill:#73cdf2;}.cls-34{fill:#c0e8fb;}.cls-35{fill:#54c2f0;}.cls-36{stroke-width:2px;}.cls-37{fill:#109bd4;}.cls-38,.cls-52{fill:#82cfeb;}.cls-39{fill:#51c2ef;}.cls-40{fill:#1aa6df;}.cls-41{fill:#43bced;}.cls-42{fill:#009bd2;}.cls-43{fill:#78d0f1;}.cls-44{fill:#1fa8e0;}.cls-45{fill:#6dcbf1;}.cls-46{fill:#1faae2;}.cls-47{fill:#9cd6ed;}.cls-48{stroke:#5dc6ea;}.cls-49{fill:#23ade4;}.cls-50{fill:#2bbaed;}.cls-51{fill:#1fa9e1;}.cls-53{fill:#22a9e1;}.cls-54{fill:#76cef3;}.cls-55{fill:#22aae1;}.cls-56{fill:#b8e5f7;}.cls-57{fill:#fafdff;}.cls-58{fill:#92cfe8;}.cls-59{fill:#3babe1;}.cls-60{fill:#20ace3;}.cls-61{fill:#20a8e0;}.cls-62{filter:url(#luminosity-noclip);}</style><filter id="luminosity-noclip" x="360.99" y="-8334" width="31.31" height="32766" filterUnits="userSpaceOnUse" color-interpolation-filters="sRGB"><feFlood flood-color="#fff" result="bg"/><feBlend in="SourceGraphic" in2="bg"/></filter><mask id="mask" x="187.66" y="-8613.38" width="31.31" height="32766" maskUnits="userSpaceOnUse"><g class="cls-62"/></mask></defs><title>field</title><g class="cls-1"><g id="Layer_1" data-name="Layer 1"><path class="cls-2" d="M378,312.58V289.42s0.25-6,6.5-5.75,5.75,6.92,5.75,6.92v22.33Z" transform="translate(-173.33 -279.38)"/><path class="cls-3" d="M384.5,283.67c-0.18,0-.33,0-0.5,0v29.07l6.25,0.17V290.58S390.75,283.92,384.5,283.67Z" transform="translate(-173.33 -279.38)"/><line class="cls-4" x1="204.25" y1="10.79" x2="217.46" y2="10.79"/><line class="cls-4" x1="204.25" y1="15.62" x2="217.46" y2="15.62"/><line class="cls-4" x1="204.25" y1="20.58" x2="217.46" y2="20.58"/><line class="cls-4" x1="204.25" y1="25.41" x2="217.46" y2="25.41"/><line class="cls-4" x1="204.25" y1="30.08" x2="217.46" y2="30.08"/><path class="cls-2" d="M392.17,312.58V289.42s0.25-6,6.5-5.75,5.75,6.92,5.75,6.92v22.33Z" transform="translate(-173.33 -279.38)"/><path class="cls-3" d="M398.67,283.67c-0.18,0-.33,0-0.5,0v29.07l6.25,0.17V290.58S404.92,283.92,398.67,283.67Z" transform="translate(-173.33 -279.38)"/><line class="cls-4" x1="218.42" y1="10.79" x2="231.63" y2="10.79"/><line class="cls-4" x1="218.42" y1="15.62" x2="231.63" y2="15.62"/><line class="cls-4" x1="218.42" y1="20.58" x2="231.63" y2="20.58"/><line class="cls-4" x1="218.42" y1="25.41" x2="231.63" y2="25.41"/><line class="cls-4" x1="218.42" y1="30.08" x2="231.63" y2="30.08"/><path class="cls-5" d="M260.33,313.19A106.19,106.19,0,0,1,294,304.31c18.94-1.69,44.06,3.56,56.13,10.19s-4.5,7.56-4.5,7.56l-29.94-6Z" transform="translate(-173.33 -279.38)"/><path class="cls-6" d="M343.58,320.38s-12.87-7.25-35.44-11.5-48,5.13-48,5.13l6.25,3.06,66.5,17.5,10.62-12.75Z" transform="translate(-173.33 -279.38)"/><path class="cls-7" d="M173.33,333.5V352H497l-0.33-26.67s-28.67-17.17-85.5-10c-0.55.07-5-2.9-5.5-2.67-4,1.71-4.36,2.19-5.58,2.33C338.16,322.16,173.33,333.5,173.33,333.5Z" transform="translate(-173.33 -279.38)"/><line class="cls-8" x1="155.13" y1="68.87" x2="318.38" y2="68.87"/><path class="cls-9" d="M214.15,316.06s-1.25-2.06,1.38-2.81c-1.19-2.44,2.44-5.31,4.88-3.19-0.19-3.12,1.06-4.12,2.81-4.81s4.44-.56,5.44,2.13a3,3,0,0,1,4.94,1.75,1.59,1.59,0,0,1,2.81.69,3.25,3.25,0,0,1,4.13-1.87,2.9,2.9,0,0,1,1.75,3.38,1.89,1.89,0,0,1,1.94,2c-0.06.69-9.44,2.31-9.44,2.31Z" transform="translate(-173.33 -279.38)"/><path class="cls-10" d="M331.42,333.67l-7.52-3.54s2-3.62,6.88-2.31c-0.31-4.62,1.25-6.69,4.06-7.81s6.13-.75,7.5,1.44c1-3.75,5.69-4.31,6.94-2.56-0.19-3.69,1-6.87,4.5-8.31s7.56,0.69,8.56,2.94a4.19,4.19,0,0,1,6.25.25c0.31,0.75-7.75,14.56-7.75,14.56l-16.19,5.5Z" transform="translate(-173.33 -279.38)"/><path class="cls-11" d="M426.54,325.54s0.29-4.5,3-5.29,5.71-.87,7.17,1.25a10.21,10.21,0,0,1,1.67,3.17,4.58,4.58,0,0,1,5.17-.79,4.21,4.21,0,0,1,2.17,5c2.58,0,4.71,1.33,4.62,3s-0.83,2.46-1.12,2.46-6.62-.62-6.62-0.62l-15-5.08Z" transform="translate(-173.33 -279.38)"/><g class="cls-12"><polygon class="cls-13" points="187.66 44.78 187.66 54.19 218.97 54.19 218.97 44.74 187.66 44.78"/></g><polygon class="cls-14" points="200.19 43.46 211.88 54.16 187.66 54.19 187.66 44.49 186.66 43.56 200.19 43.46"/><polygon class="cls-15" points="233.09 33.01 197.21 33.16 183.06 42.37 218.92 42.24 233.09 33.01"/><path class="cls-16" d="M415.71,330.67v-4.87a4.54,4.54,0,0,1,6.67,1l-0.17,3.29Z" transform="translate(-173.33 -279.38)"/><line class="cls-17" x1="255.04" y1="44.79" x2="257.83" y2="48.37"/><polyline class="cls-17" points="255.08 44.45 260.5 35.41 256.58 26.91"/><path class="cls-18" d="M430.6,285.63L427.1,281a0.4,0.4,0,0,1,.11-0.62c0.42-.2,2.41-0.94,2.41-0.94s0.52-.14.58,0.61,0.61,5.48.61,5.48Z" transform="translate(-173.33 -279.38)"/><path class="cls-19" d="M429.73,286.61l-5.78-.7a0.4,0.4,0,0,1-.37-0.51c0.15-.44,1-2.38,1-2.38s0.26-.47.84,0,4.38,3.36,4.38,3.36Z" transform="translate(-173.33 -279.38)"/><path class="cls-19" d="M429.8,288.05l-4.54,3.64a0.4,0.4,0,0,1-.63-0.09c-0.22-.42-1-2.38-1-2.38s-0.16-.51.59-0.6,5.46-.78,5.46-0.78Z" transform="translate(-173.33 -279.38)"/><path class="cls-18" d="M430.8,289.08l-0.8,5.77a0.4,0.4,0,0,1-.52.37c-0.44-.15-2.37-1-2.37-1s-0.46-.26,0-0.84,3.44-4.32,3.44-4.32Z" transform="translate(-173.33 -279.38)"/><path class="cls-18" d="M432.17,285.55l0.76-5.78a0.4,0.4,0,0,1,.52-0.37c0.44,0.15,2.37,1,2.37,1s0.47,0.26,0,.84-3.4,4.34-3.4,4.34Z" transform="translate(-173.33 -279.38)"/><path class="cls-18" d="M433.18,286.45l4.63-3.53a0.4,0.4,0,0,1,.63.11c0.21,0.42,1,2.4,1,2.4s0.14,0.51-.61.58-5.48.64-5.48,0.64Z" transform="translate(-173.33 -279.38)"/><path class="cls-18" d="M433.28,287.85l5.74,1a0.4,0.4,0,0,1,.35.53c-0.17.44-1.11,2.33-1.11,2.33s-0.28.46-.84,0-4.21-3.57-4.21-3.57Z" transform="translate(-173.33 -279.38)"/><path class="cls-18" d="M432.27,288.84l3.39,4.74a0.4,0.4,0,0,1-.12.62c-0.43.19-2.43,0.88-2.43,0.88s-0.52.13-.56-0.62-0.48-5.5-.48-5.5Z" transform="translate(-173.33 -279.38)"/><polygon class="cls-20" points="257.47 7.09 257 5.09 257.91 6.92 258.34 6.84 259.22 5.15 258.75 6.93 258.88 7.31 260.84 6.65 259.08 7.68 259.03 8.03 260.75 8.99 258.97 8.49 258.61 8.78 259.19 10.37 258.27 8.88 257.84 8.93 257.28 10.46 257.41 8.71 257.28 8.37 255.72 9.06 257.09 8 257.09 7.7 255.41 6.71 257.22 7.26 257.47 7.09"/><circle class="cls-21" cx="258.2" cy="7.97" r="1.13"/><line class="cls-22" x1="256.03" y1="17.06" x2="259.97" y2="17.12"/><line class="cls-22" x1="255.19" y1="26.34" x2="261.06" y2="26.4"/><line class="cls-22" x1="254.53" y1="35.53" x2="262.09" y2="35.59"/><polyline class="cls-23" points="261.79 49.79 258 9.49 254.58 49.24"/><path class="cls-24" d="M415.5,333.21s-0.83-2.71,1.17-3.79,4.08-1.21,4.75-.62c0-1.67.5-3.29,2.92-3.58a3.5,3.5,0,0,1,3.83,3.21,6.07,6.07,0,0,1,5.58-.62,5.13,5.13,0,0,1,2.46,2.79,4.31,4.31,0,0,1,5.25.38,4.93,4.93,0,0,1,1.17,2.79l-27.08-.25Z" transform="translate(-173.33 -279.38)"/><rect class="cls-25" x="222.75" y="45.2" width="14.75" height="8.71"/><polygon class="cls-26" points="231.56 34.9 242.5 42.31 242.5 54.06 218.97 54.06 218.97 43.16 231.56 34.9"/><polygon class="cls-27" points="222.75 40.43 237 53.81 218.97 53.81 218.97 42.62 222.75 40.43"/><polygon class="cls-28" points="233.13 33.91 246.67 43.18 247.1 42.64 233.09 33.01 233.13 33.91"/><polygon class="cls-29" points="187.66 44.78 186.34 43.56 218.97 43.56 218.94 44.74 187.66 44.78"/><polygon class="cls-30" points="222.75 53.91 222.75 45.2 237.88 45.2 237.88 53.99 222.75 53.91"/><polygon class="cls-31" points="238.56 45.15 237.88 45.15 237.88 53.99 238.66 53.99 238.56 45.15"/><polygon class="cls-32" points="205.72 45.24 208.41 45.24 211.53 48.21 205.78 48.21 205.72 45.24"/><polygon class="cls-32" points="193.16 45.24 195.84 45.24 198.97 48.21 193.22 48.21 193.16 45.24"/><polygon class="cls-33" points="198.97 48.21 200.91 48.21 200.91 45.18 195.84 45.18 198.97 48.21"/><polygon class="cls-33" points="211.47 48.21 213.41 48.21 213.41 45.18 208.34 45.18 211.47 48.21"/><polygon class="cls-34" points="202.97 33.15 213 42.37 183.06 42.37 197.21 33.16 202.97 33.15"/><path class="cls-35" d="M349.35,350.88a6.1,6.1,0,1,1,6.1-6.1,6.1,6.1,0,0,1-6.1,6.1" transform="translate(-173.33 -279.38)"/><polygon class="cls-35" points="172.06 59.29 176.42 59.29 178.33 61.87 179 67.7 176.21 71.5 171.63 71.5 172.06 59.29"/><line class="cls-36" x1="255.5" y1="55.12" x2="275.92" y2="55.12"/><path class="cls-37" d="M257.13,341.33h-2.21a0.87,0.87,0,0,0-1,.75,0.8,0.8,0,0,0,.79,1h2.58Z" transform="translate(-173.33 -279.38)"/><path class="cls-38" d="M225.58,345.06V341.5s-0.12-.75.44-0.75,0.44,0.53.44,0.69V345Z" transform="translate(-173.33 -279.38)"/><path class="cls-39" d="M242,343l11.91-3.37s0.5-.22.53,0.28,0,1.46,0,1.46l1,0,0-2.42a0.76,0.76,0,0,0-1-.56l-16.91,4.81Z" transform="translate(-173.33 -279.38)"/><path class="cls-40" d="M232,347.73c0.17-.44,4-1.54,4.56-1.27a0.49,0.49,0,0,1,.15.56,5.92,5.92,0,0,0,.65,2.44,23.38,23.38,0,0,0,1.63,1.79,9.82,9.82,0,0,1-3.65-.79,35.28,35.28,0,0,1-3.19-2.19A0.75,0.75,0,0,1,232,347.73Z" transform="translate(-173.33 -279.38)"/><polygon class="cls-41" points="61.15 64.95 61.15 67.6 62.4 67.35 62.4 64.87 61.15 64.95"/><path class="cls-40" d="M238.56,347.73c0.17-.44,4-1.54,4.56-1.27a0.49,0.49,0,0,1,.15.56,5.92,5.92,0,0,0,.65,2.44,23.38,23.38,0,0,0,1.63,1.79,9.82,9.82,0,0,1-3.65-.79,35.27,35.27,0,0,1-3.19-2.19A0.75,0.75,0,0,1,238.56,347.73Z" transform="translate(-173.33 -279.38)"/><polygon class="cls-41" points="67.75 64.95 67.75 67.6 69 67.35 69 64.87 67.75 64.95"/><path class="cls-40" d="M245.31,347.73c0.17-.44,4-1.54,4.56-1.27a0.49,0.49,0,0,1,.15.56,5.92,5.92,0,0,0,.65,2.44,23.39,23.39,0,0,0,1.63,1.79,9.82,9.82,0,0,1-3.65-.79,35.27,35.27,0,0,1-3.19-2.19A0.75,0.75,0,0,1,245.31,347.73Z" transform="translate(-173.33 -279.38)"/><polygon class="cls-41" points="74.5 64.95 74.5 67.6 75.75 67.35 75.75 64.87 74.5 64.95"/><path class="cls-9" d="M308.31,324.08s1.36-2.12,3.36-2.16,2.21,1,2.21,1a4.06,4.06,0,0,1,3.83-2.42,4.88,4.88,0,0,1,5.13,4.21,7.8,7.8,0,0,1-1.5,4.21Z" transform="translate(-173.33 -279.38)"/><path class="cls-9" d="M252,313.46a2.25,2.25,0,0,1,1.83-2.17,2.05,2.05,0,0,1,2.25.83,3.63,3.63,0,0,1,2.75-1.62c1.92-.17,3.33,1.25,3.5,3.42C261.46,315,252,313.46,252,313.46Z" transform="translate(-173.33 -279.38)"/><circle class="cls-42" cx="52.67" cy="68.37" r="2.92"/><circle class="cls-43" cx="52.67" cy="68.37" r="1.84"/><circle class="cls-44" cx="52.67" cy="68.37" r="0.64"/><path class="cls-9" d="M195,321.56s-2-2.8.13-4a2.68,2.68,0,0,1,2.38.06s-0.56-3,2.25-3.44a3,3,0,0,1,3.63,2.25,2.1,2.1,0,0,1,3.31,1.19C207.21,319.44,195,321.56,195,321.56Z" transform="translate(-173.33 -279.38)"/><path class="cls-43" d="M186.08,333.33l-12.75.17s18.42-13.83,39.42-17.17,43.08-4.75,67.33.33,39.67,10.92,52.25,17.33C314.08,334.75,186.08,333.33,186.08,333.33Z" transform="translate(-173.33 -279.38)"/><path class="cls-24" d="M189.5,333.83a18,18,0,0,0,3.25,0c2-7.62,7.68-13.5,9.34-14.92q-2.41.77-4.71,1.65C192.17,323.83,189.5,333.83,189.5,333.83Z" transform="translate(-173.33 -279.38)"/><path class="cls-24" d="M206.83,324.25c1.75-3.92,7.83-8.08,7.83-8.08a1,1,0,0,0,0-.13l-1.92.29c-1,.17-2.09.37-3.12,0.58-5.27,3.37-9.13,16.92-9.13,16.92a0.27,0.27,0,0,1,.33,0c0.9,0,1.81-.33,2.78-0.32,0-.09,0-0.16.06-0.27C204.08,330.33,205.08,328.17,206.83,324.25Z" transform="translate(-173.33 -279.38)"/><path class="cls-24" d="M211.67,333.5s1.54,0,3,.13c0.42-4.67,2-7.71,4.71-12.46a22.88,22.88,0,0,1,5.9-6.53q-2.51.28-5,.61a65.76,65.76,0,0,0-5.5,7.59C212.75,326.33,211.67,333.5,211.67,333.5Z" transform="translate(-173.33 -279.38)"/><path class="cls-24" d="M225.75,321.5c-2.92,5.08-3.54,12.21-3.54,12.21s1.71-.12,3.21-0.29c0.75-6.33,2.17-8.92,5-13.58a18.34,18.34,0,0,1,6.44-6.2c-1.82.1-3.62,0.24-5.42,0.39A35.67,35.67,0,0,0,225.75,321.5Z" transform="translate(-173.33 -279.38)"/><path class="cls-24" d="M240.33,321c2.32-4.49,7.58-7.16,8.63-7.66-1.62,0-3.23,0-4.84,0a29,29,0,0,0-7.21,7.71c-3,4.83-3.67,12.71-3.67,12.71a0.48,0.48,0,0,1,.68,0l2.16,0a3.74,3.74,0,0,0,.07-0.65C236.25,329.83,237.75,326,240.33,321Z" transform="translate(-173.33 -279.38)"/><path class="cls-24" d="M243,333.71l3-.21a33.58,33.58,0,0,1,3-10.67c2.63-5.9,8.68-8.89,9.2-9.14q-2.55-.17-5.06-0.25C244.57,321.19,243,333.71,243,333.71Z" transform="translate(-173.33 -279.38)"/><path class="cls-24" d="M252.88,333.83l3.13-.21a53.91,53.91,0,0,1,2.42-9.21c2.08-6.33,8.67-9.5,8.67-9.5s0.14-.15.3-0.36q-2-.25-4-0.44l-0.5.21C255,317.75,252.88,333.83,252.88,333.83Z" transform="translate(-173.33 -279.38)"/><path class="cls-24" d="M272.89,315.35q2.29,0.37,4.61.81" transform="translate(-173.33 -279.38)"/><path class="cls-24" d="M266.65,321.81l3.38,0.31a33.52,33.52,0,0,1,2.75-3.62,5.67,5.67,0,0,1,4.94-2.12,2.68,2.68,0,0,0-.21-0.21q-2.32-.45-4.61-0.81l-0.37.15C269.33,317,266.65,321.81,266.65,321.81Z" transform="translate(-173.33 -279.38)"/><path class="cls-24" d="M277.21,322.38l1.13,3.44s2.25-3.5,3.56-5.25,4.38-2.31,4.38-2.31a1.2,1.2,0,0,0-.16-0.26l-3.9-.87A21.84,21.84,0,0,0,277.21,322.38Z" transform="translate(-173.33 -279.38)"/><path class="cls-24" d="M286.83,323.56c-2.31,2.81-3.56,7.81-3.56,7.81a3.19,3.19,0,0,0,2.75.31c1.06-3.87,3.94-7.44,5.38-9.06a10.33,10.33,0,0,1,3.93-2.37l-3.83-1A24.53,24.53,0,0,0,286.83,323.56Z" transform="translate(-173.33 -279.38)"/><path class="cls-24" d="M296,325.69c-2.19,3-2.85,8.06-2.85,8.06l2.83-.08a26.69,26.69,0,0,1,2.52-6.48,12.54,12.54,0,0,1,4.8-4.68l-3.29-1A18.81,18.81,0,0,0,296,325.69Z" transform="translate(-173.33 -279.38)"/><path class="cls-24" d="M304.77,328.13a14.74,14.74,0,0,0-1.6,5.67l2.85-.23a21.88,21.88,0,0,1,1.56-4.87A13.35,13.35,0,0,1,311.1,325l-2.79-.94A20.2,20.2,0,0,0,304.77,328.13Z" transform="translate(-173.33 -279.38)"/><path class="cls-24" d="M316,333.56a7.65,7.65,0,0,1,.56-2.44,6.45,6.45,0,0,1,2.59-3.1q-1.41-.57-2.87-1.12a13.93,13.93,0,0,0-3,6.73Z" transform="translate(-173.33 -279.38)"/><path class="cls-24" d="M326.21,333.38a12.14,12.14,0,0,1,.87-1.93l-2.28-1a12.59,12.59,0,0,0-1.4,3S326.08,333.94,326.21,333.38Z" transform="translate(-173.33 -279.38)"/><circle class="cls-18" cx="258.2" cy="7.97" r="0.49"/><rect class="cls-45" x="183.06" y="42.24" width="35.85" height="0.63"/><polygon class="cls-29" points="183.06 42.87 218.97 42.87 218.97 43.62 183.53 43.65 183.06 42.87"/><path class="cls-24" d="M344.61,333.54s0.16-6.22,6.41-5.07c0.29-2.54,1.88-3.62,3.42-3.62a3.35,3.35,0,0,1,3.67,3.29,2.55,2.55,0,0,1,2.89-.75v6.11Z" transform="translate(-173.33 -279.38)"/><path class="cls-46" d="M257.71,344.83H224.29s-1.33,0-1.29-1a1,1,0,0,1,1.21-1h33Z" transform="translate(-173.33 -279.38)"/><circle class="cls-47" cx="172.06" cy="65.39" r="6.1"/><path class="cls-48" d="M344,345.38a1.58,1.58,0,0,0,2.29,0c1-1.19-.54-2.21-0.54-2.21" transform="translate(-173.33 -279.38)"/><path class="cls-48" d="M344.25,348.33s3.06,0.73,4.08-1.42a5.61,5.61,0,0,0,.13-4.25" transform="translate(-173.33 -279.38)"/><path class="cls-48" d="M342.33,348.71a4.41,4.41,0,0,0,3.83,1.08,4.73,4.73,0,0,0,3.46-2.29" transform="translate(-173.33 -279.38)"/><polygon class="cls-49" points="218.92 42.24 218.92 43.16 233.13 33.91 233.09 33.01 218.92 42.24"/><line class="cls-36" x1="250.25" y1="55.12" x2="13.42" y2="55.12"/><polygon class="cls-50" points="90.77 51.09 91.63 43.99 104.42 43.99 104.09 45.09 105.5 51.21 105.33 53.16 118.93 55.45 120.29 58.2 121.44 60.79 120.69 61.54 102 60.29 90.77 51.09"/><polygon class="cls-51" points="100.13 65.37 109.44 65.37 120.19 60.74 109.69 59.62 99.88 59.62 100.13 65.37"/><path class="cls-52" d="M281.5,344.21s0.29-3.21,1.5-4.33,2.54-3,5.46-2.83,3.79,0.92,3.79.92l0.33-.92a11.93,11.93,0,0,0-4.42-.92,6.85,6.85,0,0,0-4.46,1.63,9.41,9.41,0,0,0-2.67,4,5.78,5.78,0,0,0-.21,2.5h0.67Z" transform="translate(-173.33 -279.38)"/><path class="cls-10" d="M273.63,339.63l3.71,0a1.07,1.07,0,0,1,1.25,1.29,13,13,0,0,1-.21,2.5s-0.08.71-1.29,0.79-3.5.17-3.5,0.17Z" transform="translate(-173.33 -279.38)"/><path class="cls-53" d="M293.68,340.38a1.47,1.47,0,0,0,.56-0.53,0.4,0.4,0,0,1,.44-0.34l2.47,0.06a0.86,0.86,0,0,1,.56,1c0,0.88-.16,3.13-0.16,3.13a0.54,0.54,0,0,1-.53.56h-2.16Z" transform="translate(-173.33 -279.38)"/><circle class="cls-42" cx="115.8" cy="65.05" r="6.24"/><circle class="cls-54" cx="115.8" cy="65.05" r="4.3"/><circle class="cls-55" cx="115.62" cy="64.99" r="1.37"/><path class="cls-54" d="M279.29,331.33s5.92-.21,9.5,1.08,4.71,3.13,4.83,3.67a5.59,5.59,0,0,1,0,1.5,1.33,1.33,0,0,0-.62-0.42,24.12,24.12,0,0,0-13.25-2.87A27.25,27.25,0,0,0,279.29,331.33Z" transform="translate(-173.33 -279.38)"/><path class="cls-56" d="M270.23,330.52s0.43,0.06,0,0h0Z" transform="translate(-173.33 -279.38)"/><path class="cls-56" d="M276.63,326.42c-0.67-2.17-2-2-2-2s-2.87-.12-3.5-0.12a1,1,0,0,0-.75.17l-0.19,6.06A6.4,6.4,0,0,1,273,332a2.19,2.19,0,0,0,1.87.46l2.75-1.08A33.64,33.64,0,0,0,276.63,326.42Z" transform="translate(-173.33 -279.38)"/><path class="cls-56" d="M268.88,324.38a1.84,1.84,0,0,0-1.87,1.08,41,41,0,0,0-.75,4.67,18.59,18.59,0,0,1,2.82.17l0.1-3.08S270.13,324.42,268.88,324.38Z" transform="translate(-173.33 -279.38)"/><path class="cls-42" d="M265,323.38l-1.42,8,6.54,0.83,5.5,6.38,3.58,0.29a38.49,38.49,0,0,0,.42-6.25,51.67,51.67,0,0,0-1.83-9.25,2.33,2.33,0,0,0-1.42.08,20.72,20.72,0,0,1,2.33,9.08c0.08,2.46,0,5-.37,5.29a5.21,5.21,0,0,1-1.83.17,3,3,0,0,1-.71-1.38,9.7,9.7,0,0,0-2.54-4,9.31,9.31,0,0,0-3.67-2.08l0.42-7.29-1,0-0.35,7.05a18.91,18.91,0,0,0-3.4-.09c0.08-1.75.63-5.92,1-6.58S265,323.38,265,323.38Z" transform="translate(-173.33 -279.38)"/><path class="cls-57" d="M264.67,323.58l13.42,0a1.92,1.92,0,0,0,0-.87,9,9,0,0,0-2.37-.71,49.82,49.82,0,0,0-7.33-.37c-2.42.21-3.87,0.46-3.92,0.92A2.65,2.65,0,0,0,264.67,323.58Z" transform="translate(-173.33 -279.38)"/><path class="cls-58" d="M275.58,338.58l-0.87.6-3.37-4.27-4.5-1.92-3.87.58-4.29,2.33-0.67-.79a9.57,9.57,0,0,1,5.21-3.79c3.29-.79,6-0.5,8.25.88S275.08,336.58,275.58,338.58Z" transform="translate(-173.33 -279.38)"/><path class="cls-59" d="M258.9,336.44l-0.75-.69s3.06-3.31,7-3.25,7,0.94,9.56,6.69c-0.5.19-1.08,0.44-1.08,0.44L268,334.5Z" transform="translate(-173.33 -279.38)"/><circle class="cls-42" cx="92.25" cy="62.74" r="8.56"/><circle class="cls-43" cx="92.25" cy="62.74" r="5.42"/><circle class="cls-44" cx="92.25" cy="62.74" r="1.73"/><circle class="cls-60" cx="92.25" cy="59.4" r="0.44"/><circle class="cls-60" cx="92.25" cy="66.15" r="0.44"/><circle class="cls-60" cx="88.83" cy="62.81" r="0.44"/><circle class="cls-60" cx="95.66" cy="62.81" r="0.44"/><path class="cls-61" d="M280.93,331.47s-0.16-6.59.06-6.62a3.14,3.14,0,0,1,1-.19,0.89,0.89,0,0,1,.78.34c0,0.13.09,6.59,0.09,6.59Z" transform="translate(-173.33 -279.38)"/><path class="cls-42" d="M283.3,321a2.49,2.49,0,0,0-1.78,1.16,9.3,9.3,0,0,0-.28,2.88l1-.06a15.74,15.74,0,0,1,.13-2.34,2.35,2.35,0,0,1,1-.66C283.68,321.94,283.55,321.09,283.3,321Z" transform="translate(-173.33 -279.38)"/><path class="cls-39" d="M254.48,344.81s-0.17,1.48.5,1.48,0.47-1.45.47-1.45Z" transform="translate(-173.33 -279.38)"/></g></g></svg>