<svg id="Layer_1" data-name="Layer 1" xmlns="http://www.w3.org/2000/svg" viewBox="0 0 14.36 26.59"><defs><style>.cls-1{fill:#c2e8f3;}.cls-2{fill:#35afe4;}.cls-3{fill:#5dc6ea;}</style></defs><title>herb</title><circle class="cls-1" cx="6.97" cy="7.75" r="1.44"/><circle class="cls-1" cx="6.97" cy="1.44" r="1.44"/><circle class="cls-1" cx="4.72" cy="4.72" r="1.44"/><circle class="cls-1" cx="9.25" cy="4.72" r="1.44"/><path class="cls-2" d="M345.71,213.78s-0.87,8.88,6.63,11.91c0.5-2.09-.44-4.72-1.28-6.22S346.62,214.13,345.71,213.78Z" transform="translate(-345.68 -208.63)"/><path class="cls-3" d="M360,213.78s0.88,8.88-6.62,11.91c-0.5-2.09.44-4.72,1.28-6.22S359.1,214.13,360,213.78Z" transform="translate(-345.68 -208.63)"/><path class="cls-2" d="M345.71,223.31s-0.87,8.88,6.63,11.91c0.5-2.09-.44-4.72-1.28-6.22S346.62,223.66,345.71,223.31Z" transform="translate(-345.68 -208.63)"/><path class="cls-3" d="M360,223.31s0.88,8.88-6.62,11.91c-0.5-2.09.44-4.72,1.28-6.22S359.1,223.66,360,223.31Z" transform="translate(-345.68 -208.63)"/></svg>