<svg id="Layer_1" data-name="Layer 1" xmlns="http://www.w3.org/2000/svg" xmlns:xlink="http://www.w3.org/1999/xlink" viewBox="0 0 165.92 118.95"><defs><style>.cls-1{fill:#b9dfee;}.cls-2{fill:#acdaed;}.cls-3{fill:#dcebf2;}.cls-4{fill:#1ea0d5;}.cls-5{fill:none;stroke:#9cd6ed;stroke-linecap:round;stroke-miterlimit:10;}.cls-6{fill:#b8dfee;}.cls-7{fill:#78c7e7;}.cls-8{fill:#1fa3d9;}.cls-9{fill:#1ea1d6;}.cls-10{fill:#addbed;}.cls-11{fill:#92cfe8;}.cls-12{fill:#bce1ee;}.cls-13{fill:#4aaada;}.cls-14{mask:url(#mask);}.cls-15{filter:url(#luminosity-noclip);}</style><filter id="luminosity-noclip" x="75.46" y="-8334" width="24.94" height="32766" filterUnits="userSpaceOnUse" color-interpolation-filters="sRGB"><feFlood flood-color="#fff" result="bg"/><feBlend in="SourceGraphic" in2="bg"/></filter><mask id="mask" x="27.96" y="-8372.68" width="24.94" height="32766" maskUnits="userSpaceOnUse"><g class="cls-15"/></mask></defs><title>cow</title><path class="cls-1" d="M58,57.17s-5.42.42-9.25,8.83,2.17,28.67,4.5,34.33,5.83,14.92,5.83,14.92l0.17-5.83a123.57,123.57,0,0,1-6.67-19.08c-2.33-9.58-5.92-24.08,3-30C61.42,60.33,58,57.17,58,57.17Z" transform="translate(-47.5 -38.68)"/><path class="cls-2" d="M155.83,116c2.69,9.13,4.44,29.31,4.13,36.56-0.12,2.06,6.25.13,6.25,0.13s-1.31-5.19-1.81-6.25,0.16-7.19,1.23-12c1.17-5.29,6-25.08,6-25.48a14.63,14.63,0,0,1-3.75,4C165.21,114.73,157.4,115.73,155.83,116Z" transform="translate(-47.5 -38.68)"/><path class="cls-3" d="M63.85,152.92s-3-12.75,1-24.17,8.08-20.08,10.63-26.08c2,3.25,8.42,10.67,24.94,13.25s28-.83,36.94-5.33c0.92,5.67,2,5.17,4,19.75s1.31,22.08,1.31,22.08l6.13,0.25s-1.69-5.25-1.85-6.33,1-11,2.58-16.92,2.25-13,2.67-14.17,33.5-30.5,33.5-30.5l13.67-4.58-0.17-2,0.29-28.53s-4.21-4.8-5.21-5.64-1.75-1.33-4.92-1.33-8.75,5.92-9.58,7.17-0.5-.2-0.5-0.2l-10.75.78s-22.33-1.54-40.67,1.08-37,3.29-37,3.29-8.5.63-13.33-.29S66.92,50.75,58,57.17s1.25,34.92,1.25,34.92l-1.6,6.52s2.1,10.48,1.19,15.23-4.37,12-4.37,12,2.92,3.87,3.31,12.75a138.53,138.53,0,0,1,0,14.63Z" transform="translate(-47.5 -38.68)"/><path class="cls-4" d="M199.46,49.64s5.45,4.46,10,1.83,4.12-11.55,3.66-12.7C212.12,37.85,200.93,44.6,199.46,49.64Z" transform="translate(-47.5 -38.68)"/><path class="cls-4" d="M186.84,81.24S188.06,71,186.8,65s-4.8-13.36-7.55-15.33c-1.25,4.45-2.67,10.57-1.33,13.45C178.92,65.25,186,74.69,186.84,81.24Z" transform="translate(-47.5 -38.68)"/><path class="cls-4" d="M199.33,80.17s-3.5-8.33-3.92-14.75,2.92-14.81,4-15.78c0.88,2.28,4.25,8.32,3.46,13.11S199.29,72.38,199.33,80.17Z" transform="translate(-47.5 -38.68)"/><path class="cls-5" d="M180.58,61a1.85,1.85,0,0,1,1.88-1.22A1.74,1.74,0,0,1,184.24,61" transform="translate(-47.5 -38.68)"/><path class="cls-5" d="M197.52,61a1.85,1.85,0,0,1,1.88-1.22A1.74,1.74,0,0,1,201.18,61" transform="translate(-47.5 -38.68)"/><path class="cls-4" d="M164.21,65.92c3,0.83,5.88,3.63,5.06,9.06a18.18,18.18,0,0,1-9.06,13c-5.06,3.06-9.62-.5-9.62-0.5s-4.12-3.87-1.25-10.19S156.4,63.79,164.21,65.92Z" transform="translate(-47.5 -38.68)"/><path class="cls-6" d="M100.21,115.89s14.63,1.7,21.46-2.89,7.42-8.83,8.42-12,6.92-27.92,11.5-34.58c-0.67,2.25-6.33,15.58-6.33,25.17a100.56,100.56,0,0,0,2.08,19S120.38,120.34,100.21,115.89Z" transform="translate(-47.5 -38.68)"/><path class="cls-4" d="M90.83,54.79s27.58-1.87,39.79-3.67c3.5,11.38-2.42,30.92-11.54,36.29s-15.25,2.88-18.75.5S90.08,75.54,90.83,54.79Z" transform="translate(-47.5 -38.68)"/><path class="cls-7" d="M155.83,116s3.31,14.06,3.5,22.37c0.19-10.31,3.81-15.5,3.81-15.5s7.94-13,8.5-13.94A36.33,36.33,0,0,1,155.83,116Z" transform="translate(-47.5 -38.68)"/><path class="cls-8" d="M160,152.6a61.12,61.12,0,0,0,6.25.13c0.38,0.06,2.27,3.5,2.56,4.06,0.34,0.41-.72.56-1.47,0.56s-4.44-.09-4.44-0.09-1.72.19-2.66-2.19A3.45,3.45,0,0,1,160,152.6Z" transform="translate(-47.5 -38.68)"/><path class="cls-8" d="M142.65,152.42a55.73,55.73,0,0,0,6.13.25,13.88,13.88,0,0,1,1.81,2.56l0.72,1.38s0.75,1-1,.75a34.54,34.54,0,0,0-4.69-.06,3.17,3.17,0,0,1-2.44-1.62A7,7,0,0,1,142.65,152.42Z" transform="translate(-47.5 -38.68)"/><path class="cls-8" d="M57.73,152.67a55.73,55.73,0,0,0,6.13.25,13.87,13.87,0,0,1,1.81,2.56l0.72,1.38s0.75,1-1,.75a34.54,34.54,0,0,0-4.69-.06,3.17,3.17,0,0,1-2.44-1.62A7,7,0,0,1,57.73,152.67Z" transform="translate(-47.5 -38.68)"/><path class="cls-4" d="M137.33,110.58s6.67-3.33,8.5-.25,2.42,8.67-1.33,13.83c-3.08,4.42-3.42,4.46-3.42,4.46S137.92,114.17,137.33,110.58Z" transform="translate(-47.5 -38.68)"/><path class="cls-4" d="M57.65,98.6S53,71,54.46,64.23s3.75-7.94,6.38-7.69S68.21,58.35,69,67.67s-2.87,19.5-4.94,22.75A48.66,48.66,0,0,1,57.65,98.6Z" transform="translate(-47.5 -38.68)"/><path class="cls-9" d="M54.46,125.79a32.75,32.75,0,0,1,3.31,12.75A14.12,14.12,0,0,0,62,128.92c0.06-1.19-.56-5.12-4.69-4.56A6.46,6.46,0,0,0,54.46,125.79Z" transform="translate(-47.5 -38.68)"/><path class="cls-10" d="M72.63,152.85s0.76-17.26-2.82-27.09a27.09,27.09,0,0,0,3.95-12.34c0.33-3.42,7.42,7.08,7.42,7.08L81,124.79A55.61,55.61,0,0,0,78.33,137c-0.58,6.5-.42,12.63.54,16S72.63,152.85,72.63,152.85Z" transform="translate(-47.5 -38.68)"/><path class="cls-8" d="M72.63,152.85a61.12,61.12,0,0,0,6.25.13c0.38,0.06,2.27,3.5,2.56,4.06,0.34,0.41-.72.56-1.47,0.56s-4.44-.09-4.44-0.09-1.72.19-2.66-2.19A3.45,3.45,0,0,1,72.63,152.85Z" transform="translate(-47.5 -38.68)"/><path class="cls-7" d="M82.27,122.6S76,127.17,74.52,132a63.51,63.51,0,0,0-1.94,12s-0.42-12.69-2.73-17.77a0.78,0.78,0,0,1,0-.91c2.08-3.44,3.93-9.93,3.83-13.05S82.27,122.6,82.27,122.6Z" transform="translate(-47.5 -38.68)"/><path class="cls-11" d="M73.47,107.17S71.9,122.79,81,124.79c-0.31,1.5-.87,4.06.19,4.25s1.44-1.06,1.5-2.12A12.53,12.53,0,0,1,82.9,125s2.5,0.56,2.94.56,0.31,2.75.31,2.75S86,130,87,130s1.13-1.25,1.06-2.37-0.06-2.37,1.44-2.81,2.06-.06,2.25,1.06,0.19,2.69,1.13,2.62,1.13-1.44.88-2.75-0.12-2.37.94-3a12.48,12.48,0,0,0,5.75-6.87C94.65,115.17,73.47,107.17,73.47,107.17Z" transform="translate(-47.5 -38.68)"/><path class="cls-7" d="M73.47,107.17a46.19,46.19,0,0,1,2-4.51c3.25,2.19,19.21,13.5,24.94,13.25-0.44,2.25-7.75,4.88-12.5,3.94S75.66,114,73.47,107.17Z" transform="translate(-47.5 -38.68)"/><path class="cls-4" d="M179.25,49.64s-5,4.46-9.61,1.83-4.12-11.55-3.66-12.7C167,37.85,178.91,47.81,179.25,49.64Z" transform="translate(-47.5 -38.68)"/><path class="cls-12" d="M187.46,80.46a37.69,37.69,0,0,1-9.12,8.71c-5.58,3.67-13.87,7.08-17.29,10.42s-9,8.25-9.25,17.17c7.25-.17,16.85-4.77,20-7.86,2.35-2.28,9.71-10.89,11.5-17.09s2.46-5.67,2.46-5.67,2,2,3,1.83a4.59,4.59,0,0,0,4,2.71A4.2,4.2,0,0,0,197,88.33a1.44,1.44,0,0,1,1.08-.71,3.4,3.4,0,0,0,2.71-3.08c0.25-2.67-.46-2.54-1.21-3S187.46,80.46,187.46,80.46Z" transform="translate(-47.5 -38.68)"/><path class="cls-4" d="M196.13,87.57h-5.19a4.43,4.43,0,0,1-4.42-4.42h0a4.43,4.43,0,0,1,4.42-4.42h5.19a4.43,4.43,0,0,1,4.42,4.42h0A4.43,4.43,0,0,1,196.13,87.57Z" transform="translate(-47.5 -38.68)"/><circle class="cls-13" cx="142.57" cy="44.57" r="1.78"/><circle class="cls-13" cx="149.57" cy="44.57" r="1.78"/><g class="cls-14"><path class="cls-6" d="M75.46,102.67a77.77,77.77,0,0,0,6.79-27.58C82.5,70.92,84,61.17,76.58,54.33c6.92,2.67,7.5,15.5,7.5,15.5l0.08,22.83S84.92,101.92,87,105s5.71,8.29,13.4,10.92C90.83,114.79,81.75,108.75,75.46,102.67Z" transform="translate(-47.5 -38.68)"/></g></svg>