<svg xmlns="http://www.w3.org/2000/svg" viewBox="0 0 68.98 129.82"><defs><style>.cls-1{isolation:isolate;}.cls-2{fill:#dbf1fb;}.cls-3{fill:#c6e9f9;}.cls-4{fill:#65c3ee;}.cls-5{fill:#c1e7f7;}.cls-6{fill:#b5e2f7;}.cls-7{fill:#9bd7f3;}.cls-8{fill:#45b6e8;}.cls-9{fill:#8cd1f0;}.cls-10{fill:#52bbeb;}.cls-11{fill:#90d3f1;}.cls-12{fill:#55bceb;}.cls-13{fill:#1ea0d5;opacity:0.24;}.cls-14{fill:#d1edfa;}.cls-15{fill:#b7e4f8;}.cls-16{fill:#a6ddf6;}.cls-17{fill:#5cbfec;}.cls-18{fill:#bae5f7;}.cls-19{fill:#7dcdf0;opacity:0.57;mix-blend-mode:multiply;}.cls-20{fill:#dff3fc;}.cls-21{fill:#89d0f0;opacity:0.47;}</style></defs><title>farmer</title><g class="cls-1"><g id="Layer_1" data-name="Layer 1"><path class="cls-2" d="M400.32,81.19a8.2,8.2,0,0,0,1.68-4.1,23.85,23.85,0,0,0-.08-4.5l-0.75.73L398,72.19l-1.66-3.25,1.74-2.21,4.85-.17s12-1.09,13.75-1.59c0.28,4.44,1.13,9.22-1.53,11.44s-4.34,2.41-7.37,2.44c-0.31,1.59-.19,2.53.25,2.69a2.3,2.3,0,0,1,1.12,1.94c0.22,1.22.38,2.5,0.47,2.88s-2.41-1-2.41-1-4.62-2.25-5.47-2.81A7.37,7.37,0,0,1,400.32,81.19Z" transform="translate(-380.75 -44.59)"/><path class="cls-3" d="M407.62,100.88s-1,2.46-5.87,1-4.5-2.54-4.42-4.12,0.08-10.92,2.92-12.37,5-1.08,6.08.83,4,9.75,4,9.75Z" transform="translate(-380.75 -44.59)"/><path class="cls-4" d="M393.75,66.5A14.1,14.1,0,0,0,402,77.08a20,20,0,0,0-.08-4.5,2.69,2.69,0,0,1-2.75-.25,3.2,3.2,0,0,1-.67-4.5,3.12,3.12,0,0,1,2.91-.9,2,2,0,0,1,.63.52l1.38,2.13,2.25,1.08-0.5-4.33A79.31,79.31,0,0,1,393.75,66.5Z" transform="translate(-380.75 -44.59)"/><path class="cls-5" d="M398.95,69.41s0,2.25,2.87,2.5c0.16-1.19-.09-1.09-0.09-1.09a2.13,2.13,0,0,1-1.12-.09A6,6,0,0,1,398.95,69.41Z" transform="translate(-380.75 -44.59)"/><path class="cls-6" d="M380.75,63.25s0,2.56,10.73,3.29c11,0.75,24.94-1.12,29.85-2.46s7.25-2.58,7.17-3.83-6.75-2.83-12.08-2.75-23.92,1.33-23.92,1.33S381.75,61.08,380.75,63.25Z" transform="translate(-380.75 -44.59)"/><path class="cls-7" d="M392.08,53.5s-0.42-3.67.92-5.25,4.58-3.17,10-3.5,11.42-.5,12.42,3.25,0.5,5.08.5,5.08l-18.75,3.08Z" transform="translate(-380.75 -44.59)"/><path class="cls-8" d="M403.42,166l-8.17-5.33,6.08-16.92a2.78,2.78,0,0,0,0-2.42c-0.58-1.5-5.67-24.33-6.33-32.92s-0.65-20.79,5.32-27.23c2.16,1.5,6.94,4.16,6.94,4.16s1.66,3.7,1.82,3.91a3.87,3.87,0,0,0,1.33.33l0.6,5.95,0.58,3.38s-3.43-7.66-3.68-8.53a26.94,26.94,0,0,0-2-4.46,3.57,3.57,0,0,0-5-.79c-3,1.79-3.17,6.54-3.17,6.54S396.92,99,398,100s5.42,2.5,7.33,2.08a4.37,4.37,0,0,0,2.54-1.25l4.29,5.58,0.62,0.46,1.67,11s13.58,8.38,16,11.08a51.73,51.73,0,0,1,2.25,5.79l7.92,19-8.54,4-9.87-21.54a3.42,3.42,0,0,0-2.08-1.62c-1.5-.42-6.83-2.33-6.83-2.33s-1.29-.46-1,1.25,0.58,7.75.58,7.75,0.5,1.79-1.12,5.42S403.42,166,403.42,166Z" transform="translate(-380.75 -44.59)"/><path class="cls-9" d="M435.5,162.75l13.87-5.87a3.42,3.42,0,0,0-3.17-2,21.63,21.63,0,0,0-5,1l-1-1.92L433,157.38Z" transform="translate(-380.75 -44.59)"/><path class="cls-10" d="M436.57,163.88l13.16-5.81a4.41,4.41,0,0,0-.47-1.47c-0.22-.09-13.76,6.16-13.76,6.16A1.06,1.06,0,0,0,436.57,163.88Z" transform="translate(-380.75 -44.59)"/><path class="cls-11" d="M395.73,160.94L392.95,167l13.62,6.5a3.25,3.25,0,0,0-.22-3.09c-1-1.34-4.06-3.66-4.12-3.91a3.5,3.5,0,0,1,.41-1.16Z" transform="translate(-380.75 -44.59)"/><path class="cls-12" d="M405.64,174.41a1.13,1.13,0,0,0,.94-0.87c0-.66-13.62-6.5-13.62-6.5a0.83,0.83,0,0,0-.09,1.22C393.48,168.78,405.64,174.41,405.64,174.41Z" transform="translate(-380.75 -44.59)"/><path class="cls-13" d="M409.67,86.34l0.75,3.24a1.48,1.48,0,0,1-1.33-.33,27.28,27.28,0,0,1-1.82-3.91A16.42,16.42,0,0,1,409.67,86.34Z" transform="translate(-380.75 -44.59)"/><path class="cls-14" d="M414,91.88l-1.25-1.71-2,1.83L411,95A6.45,6.45,0,0,1,414,91.88Z" transform="translate(-380.75 -44.59)"/><path class="cls-15" d="M409.67,86.34a19.32,19.32,0,0,1,3,3.82,8.09,8.09,0,0,1-2,1.83Z" transform="translate(-380.75 -44.59)"/><path class="cls-16" d="M411.33,97.21s-1-1.54-.67-2a6.47,6.47,0,0,1,3.92-3.62c3.08-1.25,16.63-7.25,16.63-7.25S435.75,83.17,437,86s5.46,12.21,5.46,12.21,0.92,4.13-2.5,5.71-17,7.42-17,7.42a6.08,6.08,0,0,1-5.83-.12C415.5,110.17,411.33,97.21,411.33,97.21Z" transform="translate(-380.75 -44.59)"/><path class="cls-17" d="M392.08,53.5l0.17,4.42s3.42,2.17,4.5,2.17,17.33-.67,19.5-3.33C416.17,53.67,416,52,416,52s-3.08,2.42-12,2.5S392.08,53.5,392.08,53.5Z" transform="translate(-380.75 -44.59)"/><path class="cls-7" d="M392.5,61.08l-0.25-3.17s2.33,2.08,12,1.25,11.42-1.58,12-2.42c0.17,1.75.25,3.08,0.25,3.08A43.5,43.5,0,0,1,404,62.17,39.38,39.38,0,0,1,392.5,61.08Z" transform="translate(-380.75 -44.59)"/><path class="cls-18" d="M421.79,87.75S423,86.79,424,89s7.58,17.58,7.58,17.58l-2.37,1-8-18.17A1.18,1.18,0,0,1,421.79,87.75Z" transform="translate(-380.75 -44.59)"/><path class="cls-19" d="M423.54,106.83c0.13-.08,12-5.17,12-5.17s4.42-1.42,5-4.33,0-3.37,0-3.37,2,3.88,2.08,5.17a5.13,5.13,0,0,1-1.21,3.71,13.08,13.08,0,0,1-3.37,1.92l-16.54,7.17s-3,.21-4-0.42-2.54-3.87-2.54-3.87Z" transform="translate(-380.75 -44.59)"/><path class="cls-20" d="M407.87,100.88l4.29,5.58,0.62,0.46,12,5.08s2.5,0.71,3.13.42a12.81,12.81,0,0,1,1.33-.79,16.64,16.64,0,0,0,3-.87c0.54-.29,1.92-1.29,2.17-1.46s2.42-1.29,2.62-1.42a10.46,10.46,0,0,0,1.58-2.25c0-.25,0-1.25-0.5-1.25a3.54,3.54,0,0,0-1.5,1L435,106s-2.25.42-2.67,0.42a8,8,0,0,0-4.75,2.54c-2.25-1.58-10.83-5.25-10.83-5.25s-6.37-7.58-6.5-7.75S406.08,88,406.08,88s-0.83-2.21-2-2.25-2.67-.25-3.67.83A7.25,7.25,0,0,0,399,89.38a2.21,2.21,0,0,0,.85,2C400.54,92.21,407.87,100.88,407.87,100.88Z" transform="translate(-380.75 -44.59)"/><path class="cls-15" d="M408.07,81.53a18.64,18.64,0,0,1-6.27-3.22l0,0a8.65,8.65,0,0,1-1.43,2.85,7.37,7.37,0,0,0,1.47,1.34c0.84,0.56,5.47,2.81,5.47,2.81s2.5,1.38,2.41,1-0.25-1.66-.47-2.87A2.3,2.3,0,0,0,408.07,81.53Z" transform="translate(-380.75 -44.59)"/><path class="cls-21" d="M399,89.38a2.44,2.44,0,0,0,.67,1.46c0.75,1.15,8.25,10,8.25,10a3.3,3.3,0,0,1-1.58,1c-0.92-1.08-7-8.35-7.25-8.83S397.79,90.33,399,89.38Z" transform="translate(-380.75 -44.59)"/></g></g></svg>