<svg id="Layer_1" data-name="Layer 1" xmlns="http://www.w3.org/2000/svg" viewBox="0 0 50.01 69.51"><defs><style>.cls-1{fill:#e4f5fb;}.cls-2{fill:#d5eff8;}.cls-3{fill:#52beea;}.cls-4{fill:#fff;}.cls-5{fill:#f0f9fc;}.cls-6{fill:#c2e8f3;}</style></defs><title>food</title><polygon class="cls-1" points="11.33 13.5 11.29 69.44 30.6 69.42 30.6 13.96 11.33 13.5"/><polygon class="cls-2" points="49.98 69.42 30.6 69.42 30.17 14 50 13.83 49.98 69.42"/><path class="cls-3" d="M210.58,210.79l22.58-.08-2.08,34.54a1.43,1.43,0,0,1-1.5,1.58H215a2.12,2.12,0,0,1-2.33-2C212.42,242.54,210.58,210.79,210.58,210.79Z" transform="translate(-210.58 -177.33)"/><path class="cls-4" d="M213.5,223.21s3-1.83,8.08.58c4.38,1.88,8.67-.92,8.67-0.92l-1.67,20.33a2,2,0,0,1-2.25,1.38c-2-.08-9.46-0.21-9.46-0.21s-1.71.08-1.75-2S213.5,223.21,213.5,223.21Z" transform="translate(-210.58 -177.33)"/><polygon class="cls-2" points="20.92 0 40.25 0 40.25 3.92 21 3.92 20.92 0"/><polygon class="cls-4" points="11.33 13.5 21 3.92 40.25 3.92 30.17 14 11.33 13.5"/><polygon class="cls-5" points="50 13.83 40.25 3.92 30.17 14 30.19 14.79 50.01 14.89 50 13.83"/><polygon class="cls-6" points="40.31 5.04 37.38 8.25 48.33 13.81 40.31 5.04"/><polygon class="cls-2" points="32.25 13.56 37.38 8.25 48.33 13.81 32.25 13.56"/><path class="cls-1" d="M226.33,244.58a2,2,0,0,0,2.25-1.37l1.67-20.33s-4.29,2.79-8.67.92l0.32,20.68C223.71,244.51,225.51,244.55,226.33,244.58Z" transform="translate(-210.58 -177.33)"/></svg>