<svg id="Layer_1" data-name="Layer 1" xmlns="http://www.w3.org/2000/svg" viewBox="0 0 78.73 74.46"><defs><style>.cls-1{fill:#dbeefb;}.cls-2{fill:#4bb9e7;}.cls-3{fill:#4cb9e7;}</style></defs><title>gear</title><path class="cls-1" d="M72.67,300.65A15.93,15.93,0,1,0,88.6,316.58,15.93,15.93,0,0,0,72.67,300.65Zm0,29a13.07,13.07,0,1,1,13.07-13.07A13.07,13.07,0,0,1,72.67,329.65Z" transform="translate(-53.49 -286.12)"/><path class="cls-1" d="M72.7,304.57a12,12,0,1,0,12,12A12,12,0,0,0,72.7,304.57Zm0,22.65a10.67,10.67,0,1,1,10.67-10.67A10.67,10.67,0,0,1,72.7,327.22Z" transform="translate(-53.49 -286.12)"/><polygon class="cls-1" points="18.4 14.58 19.75 11.04 23.78 11.69 23.98 15.43 18.4 14.58"/><polygon class="cls-1" points="26.37 16.67 29.2 14.16 32.48 16.61 30.92 20.01 26.37 16.67"/><polygon class="cls-1" points="32.3 22.09 36 21.3 37.65 25.04 34.62 27.24 32.3 22.09"/><polygon class="cls-1" points="34.82 29.77 38.4 31.02 37.85 35.07 34.12 35.37 34.82 29.77"/><polygon class="cls-1" points="32.93 37.53 35.43 40.37 32.98 43.64 29.58 42.08 32.93 37.53"/><polygon class="cls-1" points="27.63 43.47 28.27 47.2 24.46 48.69 22.39 45.58 27.63 43.47"/><polygon class="cls-1" points="19.85 45.84 18.62 49.42 14.56 48.9 14.25 45.17 19.85 45.84"/><polygon class="cls-1" points="11.92 44.25 8.96 46.61 5.81 44 7.54 40.68 11.92 44.25"/><polygon class="cls-1" points="6 38.57 2.28 39.29 0.7 35.52 3.77 33.38 6 38.57"/><polygon class="cls-1" points="3.6 31.12 0 29.95 0.45 25.89 4.17 25.51 3.6 31.12"/><polygon class="cls-1" points="5.2 23.14 2.92 20.12 5.61 17.05 8.88 18.86 5.2 23.14"/><polygon class="cls-1" points="10.79 17.14 10.11 13.42 13.9 11.88 16.01 14.98 10.79 17.14"/><path class="cls-2" d="M76.28,337.11A6.89,6.89,0,1,0,83.17,344,6.89,6.89,0,0,0,76.28,337.11Zm0,12.55A5.65,5.65,0,1,1,81.93,344,5.65,5.65,0,0,1,76.28,349.66Z" transform="translate(-53.49 -286.12)"/><polygon class="cls-2" points="22.45 51.02 23.04 49.49 24.78 49.77 24.87 51.38 22.45 51.02"/><polygon class="cls-2" points="25.9 51.92 27.13 50.84 28.54 51.89 27.87 53.37 25.9 51.92"/><polygon class="cls-2" points="28.47 54.27 30.07 53.92 30.78 55.54 29.47 56.49 28.47 54.27"/><polygon class="cls-2" points="29.56 57.59 31.11 58.13 30.87 59.88 29.26 60.01 29.56 57.59"/><polygon class="cls-2" points="28.74 60.95 29.82 62.18 28.76 63.59 27.29 62.92 28.74 60.95"/><polygon class="cls-2" points="26.45 63.52 26.72 65.13 25.08 65.78 24.18 64.43 26.45 63.52"/><polygon class="cls-2" points="23.08 64.55 22.55 66.09 20.79 65.87 20.66 64.25 23.08 64.55"/><polygon class="cls-2" points="19.65 63.86 18.37 64.88 17 63.75 17.75 62.31 19.65 63.86"/><polygon class="cls-2" points="17.09 61.4 15.48 61.71 14.79 60.08 16.12 59.15 17.09 61.4"/><polygon class="cls-2" points="16.05 58.18 14.49 57.67 14.68 55.91 16.29 55.74 16.05 58.18"/><polygon class="cls-2" points="16.74 54.72 15.75 53.42 16.92 52.08 18.33 52.87 16.74 54.72"/><polygon class="cls-2" points="19.16 52.13 18.87 50.52 20.51 49.85 21.42 51.19 19.16 52.13"/><path class="cls-3" d="M100.09,288.61a11.4,11.4,0,1,0,11.4,11.4A11.4,11.4,0,0,0,100.09,288.61Zm0,20.75a9.35,9.35,0,1,1,9.35-9.35A9.35,9.35,0,0,1,100.09,309.36Z" transform="translate(-53.49 -286.12)"/><polygon class="cls-3" points="46.04 2.53 47.01 0 49.9 0.46 50.04 3.14 46.04 2.53"/><polygon class="cls-3" points="51.75 4.03 53.77 2.23 56.12 3.98 55 6.42 51.75 4.03"/><polygon class="cls-3" points="55.99 7.91 58.64 7.34 59.82 10.01 57.65 11.59 55.99 7.91"/><polygon class="cls-3" points="57.8 13.4 60.35 14.3 59.97 17.2 57.3 17.41 57.8 13.4"/><polygon class="cls-3" points="56.44 18.96 58.23 20.99 56.48 23.33 54.04 22.21 56.44 18.96"/><polygon class="cls-3" points="52.65 23.2 53.11 25.87 50.38 26.94 48.9 24.71 52.65 23.2"/><polygon class="cls-3" points="47.08 24.9 46.2 27.46 43.3 27.09 43.07 24.42 47.08 24.9"/><polygon class="cls-3" points="41.41 23.76 39.29 25.45 37.04 23.58 38.28 21.21 41.41 23.76"/><polygon class="cls-3" points="37.17 19.7 34.51 20.22 33.38 17.52 35.58 15.98 37.17 19.7"/><polygon class="cls-3" points="35.45 14.37 32.88 13.53 33.2 10.63 35.86 10.35 35.45 14.37"/><polygon class="cls-3" points="36.6 8.66 34.97 6.5 36.89 4.3 39.23 5.6 36.6 8.66"/><polygon class="cls-3" points="40.6 4.37 40.12 1.7 42.83 0.6 44.33 2.82 40.6 4.37"/><path class="cls-2" d="M108.12,316.83a20,20,0,1,0,20,20A20,20,0,0,0,108.12,316.83Zm0,36.36a16.39,16.39,0,1,1,16.39-16.39A16.39,16.39,0,0,1,108.12,353.19Z" transform="translate(-53.49 -286.12)"/><path class="cls-2" d="M108.17,321.74a15,15,0,1,0,15,15A15,15,0,0,0,108.17,321.74Zm0,28.41a13.39,13.39,0,1,1,13.39-13.39A13.39,13.39,0,0,1,108.17,350.15Z" transform="translate(-53.49 -286.12)"/><polygon class="cls-2" points="53.66 30.77 55.34 26.33 60.41 27.15 60.66 31.83 53.66 30.77"/><polygon class="cls-2" points="63.65 33.39 67.2 30.24 71.31 33.31 69.36 37.58 63.65 33.39"/><polygon class="cls-2" points="71.09 40.19 75.73 39.19 77.8 43.88 74 46.64 71.09 40.19"/><polygon class="cls-2" points="74.25 49.82 78.73 51.39 78.05 56.47 73.37 56.84 74.25 49.82"/><polygon class="cls-2" points="71.88 59.55 75.02 63.12 71.94 67.22 67.68 65.25 71.88 59.55"/><polygon class="cls-2" points="65.23 67 66.03 71.68 61.26 73.55 58.66 69.64 65.23 67"/><polygon class="cls-2" points="55.48 69.98 53.93 74.46 48.84 73.81 48.45 69.13 55.48 69.98"/><polygon class="cls-2" points="45.53 67.97 41.82 70.94 37.87 67.66 40.04 63.5 45.53 67.97"/><polygon class="cls-2" points="38.1 60.85 33.45 61.76 31.46 57.03 35.31 54.35 38.1 60.85"/><polygon class="cls-2" points="35.1 51.52 30.58 50.05 31.14 44.95 35.81 44.47 35.1 51.52"/><polygon class="cls-2" points="37.1 41.51 34.24 37.72 37.62 33.86 41.72 36.14 37.1 41.51"/><polygon class="cls-2" points="44.12 33.98 43.27 29.32 48.02 27.39 50.66 31.27 44.12 33.98"/></svg>